<?xml version="1.0" encoding="UTF-8" standalone="no"?>
<!-- Created with Inkscape (http://www.inkscape.org/) -->

<svg
   xmlns:dc="http://purl.org/dc/elements/1.1/"
   xmlns:cc="http://creativecommons.org/ns#"
   xmlns:rdf="http://www.w3.org/1999/02/22-rdf-syntax-ns#"
   xmlns:svg="http://www.w3.org/2000/svg"
   xmlns="http://www.w3.org/2000/svg"
   xmlns:xlink="http://www.w3.org/1999/xlink"
   xmlns:sodipodi="http://sodipodi.sourceforge.net/DTD/sodipodi-0.dtd"
   xmlns:inkscape="http://www.inkscape.org/namespaces/inkscape"
   width="278.79117mm"
   height="38.655624mm"
   viewBox="0 0 278.79118 38.655624"
   version="1.1"
   id="svg8"
   inkscape:version="0.92.4 (5da689c313, 2019-01-14)"
   sodipodi:docname="logo_text.svg">
  <defs
     id="defs2">
    <path
       inkscape:connector-curvature="0"
       d="m 441.41,231.22 c 0,68.99 -56.71,125 -126.55,125 -69.84,0 -126.54,-56.01 -126.54,-125 0,-68.99 56.7,-125 126.54,-125 69.84,0 126.55,56.01 126.55,125 z"
       id="c1FIbBKHn" />
    <path
       inkscape:connector-curvature="0"
       d="m 374.27,190.38 v -2.97 0 z"
       id="a1AQj8XbSf" />
    <path
       inkscape:connector-curvature="0"
       d="m 255.38,261.7 h 34.74 v -70.8 h -34.4 v -1.4 l -17.5,-36.25 h 123.96 v 37.65 h -34.4 v 70.8 h 34.06 l 18.19,37.65 H 237.88 l 17.5,-36.25 z m 106.8,-108.45 h 18.19 l -18.19,37.65 z"
       id="a41zRWiExy" />
  </defs>
  <sodipodi:namedview
     id="base"
     pagecolor="#ffffff"
     bordercolor="#666666"
     borderopacity="1.0"
     inkscape:pageopacity="0.0"
     inkscape:pageshadow="2"
     inkscape:zoom="0.70000001"
     inkscape:cx="307.26517"
     inkscape:cy="292.28897"
     inkscape:document-units="mm"
     inkscape:current-layer="g48"
     showgrid="false"
     inkscape:window-width="1920"
     inkscape:window-height="1017"
     inkscape:window-x="-8"
     inkscape:window-y="-8"
     inkscape:window-maximized="1"
     fit-margin-top="0"
     fit-margin-left="0"
     fit-margin-right="0"
     fit-margin-bottom="0" />
  <metadata
     id="metadata5">
    <rdf:RDF>
      <cc:Work
         rdf:about="">
        <dc:format>image/svg+xml</dc:format>
        <dc:type
           rdf:resource="http://purl.org/dc/dcmitype/StillImage" />
        <dc:title></dc:title>
      </cc:Work>
    </rdf:RDF>
  </metadata>
  <g
     inkscape:label="Layer 1"
     inkscape:groupmode="layer"
     id="layer1"
     transform="translate(-27.917512,-26.622672)">
    <g
       transform="translate(-35.05729,-14.363094)"
       id="layer1-8"
       inkscape:label="Layer 1">
      <g
         transform="matrix(0.26458333,0,0,0.26458333,-33.131692,-4.7588024)"
         id="g49">
        <g
           id="g47"
           transform="translate(-1.812877e-7,6.0714286)">
          <g
             id="g21">
            <use
               height="100%"
               width="100%"
               y="0"
               x="0"
               style="opacity:1;fill:#95b4d7;fill-opacity:1"
               xlink:href="#a1AQj8XbSf"
               id="use19" />
          </g>
          <g
             id="g45"
             transform="translate(91.428572,5.0000001)">
            <g
               id="g48"
               style="fill:#ffffff">
              <use
                 transform="translate(33.928575,8.571429)"
                 id="use43"
                 xlink:href="#a41zRWiExy"
                 style="opacity:1;fill:#ffffff;fill-opacity:1"
                 x="0"
                 y="0"
                 width="100%"
                 height="100%" />
              <g
                 aria-label="NTELLECTURE"
                 style="font-style:normal;font-weight:normal;font-size:70.96520996px;line-height:1.25;font-family:sans-serif;letter-spacing:0px;word-spacing:0px;fill:#ffffff;fill-opacity:1;stroke:none;stroke-width:1.77413034"
                 id="text112"
                 transform="matrix(1.1635423,0,0,1.1635423,-68.68176,-38.411427)">
                <path
                   d="m 472.76143,274.32809 q -7.60747,-13.51177 -16.46393,-26.68292 -8.85646,-13.17114 -18.84836,-24.86621 v 51.54913 h -17.48583 v -78.68622 h 14.42013 q 3.74696,3.74696 8.28874,9.19709 4.54177,5.45013 9.19709,11.69506 4.76886,6.1314 9.42418,12.83052 4.65532,6.58557 8.74291,12.71696 v -46.43963 h 17.59938 v 78.68622 z"
                   style="font-style:normal;font-variant:normal;font-weight:bold;font-stretch:normal;font-size:113.54434204px;font-family:Ubuntu;-inkscape-font-specification:'Ubuntu Bold';letter-spacing:0px;writing-mode:lr-tb;direction:ltr;fill:#ffffff;fill-opacity:1;stroke-width:1.77413034"
                   id="path128"
                   inkscape:connector-curvature="0" />
                <path
                   d="m 564.14865,195.64187 v 15.10139 h -23.73076 v 63.58483 H 522.70497 V 210.74326 H 498.9742 v -15.10139 z"
                   style="font-style:normal;font-variant:normal;font-weight:bold;font-stretch:normal;font-size:113.54434204px;font-family:Ubuntu;-inkscape-font-specification:'Ubuntu Bold';letter-spacing:0px;writing-mode:lr-tb;direction:ltr;fill:#ffffff;fill-opacity:1;stroke-width:1.77413034"
                   id="path130"
                   inkscape:connector-curvature="0" />
                <path
                   d="m 575.42147,274.32809 v -78.68622 h 53.13875 v 14.8743 h -35.42583 v 15.44203 h 31.45178 v 14.53368 h -31.45178 v 18.96191 h 38.03735 v 14.8743 z"
                   style="font-style:normal;font-variant:normal;font-weight:bold;font-stretch:normal;font-size:113.54434204px;font-family:Ubuntu;-inkscape-font-specification:'Ubuntu Bold';letter-spacing:0px;writing-mode:lr-tb;direction:ltr;fill:#ffffff;fill-opacity:1;stroke-width:1.77413034"
                   id="path132"
                   inkscape:connector-curvature="0" />
                <path
                   d="m 696.74006,259.11315 v 15.21494 h -52.57103 v -78.68622 h 17.71291 v 63.47128 z"
                   style="font-style:normal;font-variant:normal;font-weight:bold;font-stretch:normal;font-size:113.54434204px;font-family:Ubuntu;-inkscape-font-specification:'Ubuntu Bold';letter-spacing:0px;writing-mode:lr-tb;direction:ltr;fill:#ffffff;fill-opacity:1;stroke-width:1.77413034"
                   id="path134"
                   inkscape:connector-curvature="0" />
                <path
                   d="m 760.60874,259.11315 v 15.21494 h -52.57103 v -78.68622 h 17.71292 v 63.47128 z"
                   style="font-style:normal;font-variant:normal;font-weight:bold;font-stretch:normal;font-size:113.54434204px;font-family:Ubuntu;-inkscape-font-specification:'Ubuntu Bold';letter-spacing:0px;writing-mode:lr-tb;direction:ltr;fill:#ffffff;fill-opacity:1;stroke-width:1.77413034"
                   id="path136"
                   inkscape:connector-curvature="0" />
                <path
                   d="m 771.90642,274.32809 v -78.68622 h 53.13876 v 14.8743 h -35.42584 v 15.44203 h 31.45178 v 14.53368 h -31.45178 v 18.96191 h 38.03736 v 14.8743 z"
                   style="font-style:normal;font-variant:normal;font-weight:bold;font-stretch:normal;font-size:113.54434204px;font-family:Ubuntu;-inkscape-font-specification:'Ubuntu Bold';letter-spacing:0px;writing-mode:lr-tb;direction:ltr;fill:#ffffff;fill-opacity:1;stroke-width:1.77413034"
                   id="path138"
                   inkscape:connector-curvature="0" />
                <path
                   d="m 876.53396,275.91772 q -19.18899,0 -29.29444,-10.67317 -9.9919,-10.67317 -9.9919,-30.31634 0,-9.76482 3.0657,-17.37229 3.0657,-7.72101 8.40228,-12.94405 5.33658,-5.33659 12.71697,-8.06165 7.38038,-2.72506 16.00975,-2.72506 4.99595,0 9.08355,0.79481 4.08759,0.68126 7.15329,1.70316 3.0657,0.90836 5.10949,1.93026 2.0438,1.02189 2.95216,1.58962 l -5.1095,14.30658 q -3.63342,-1.93025 -8.51582,-3.29278 -4.76887,-1.36253 -10.90026,-1.36253 -4.0876,0 -8.06165,1.36253 -3.86051,1.36253 -6.9262,4.42823 -2.95216,2.95215 -4.76887,7.72101 -1.81671,4.76886 -1.81671,11.58152 0,5.45013 1.13545,10.219 1.24899,4.65531 3.86051,8.06164 2.72506,3.40633 7.03974,5.45013 4.31469,1.93026 10.44608,1.93026 3.86051,0 6.92621,-0.45418 3.0657,-0.45418 5.45013,-1.0219 2.38443,-0.68127 4.20114,-1.47608 1.81671,-0.79481 3.29278,-1.47607 l 4.88241,14.19304 q -3.74696,2.27089 -10.55962,4.0876 -6.81266,1.81671 -15.78267,1.81671 z"
                   style="font-style:normal;font-variant:normal;font-weight:bold;font-stretch:normal;font-size:113.54434204px;font-family:Ubuntu;-inkscape-font-specification:'Ubuntu Bold';letter-spacing:0px;writing-mode:lr-tb;direction:ltr;fill:#ffffff;fill-opacity:1;stroke-width:1.77413034"
                   id="path140"
                   inkscape:connector-curvature="0" />
                <path
                   d="m 975.0816,195.64187 v 15.10139 h -23.73077 v 63.58483 h -17.71291 v -63.58483 h -23.73077 v -15.10139 z"
                   style="font-style:normal;font-variant:normal;font-weight:bold;font-stretch:normal;font-size:113.54434204px;font-family:Ubuntu;-inkscape-font-specification:'Ubuntu Bold';letter-spacing:0px;writing-mode:lr-tb;direction:ltr;fill:#ffffff;fill-opacity:1;stroke-width:1.77413034"
                   id="path142"
                   inkscape:connector-curvature="0" />
                <path
                   d="m 1017.1249,275.91772 q -8.2887,0 -14.3065,-2.27089 -6.0179,-2.38443 -9.99195,-6.47203 -3.86051,-4.20114 -5.79076,-9.87836 -1.81671,-5.79076 -1.81671,-12.71696 v -48.93761 h 17.71292 v 47.46153 q 0,4.76886 1.0219,8.17519 1.1354,3.29279 2.9521,5.45013 1.9303,2.0438 4.5418,2.95215 2.7251,0.90836 5.9043,0.90836 6.4721,0 10.4461,-3.97405 4.0876,-3.97405 4.0876,-13.51178 v -47.46153 h 17.7129 v 48.93761 q 0,6.9262 -1.9302,12.71696 -1.9303,5.79076 -5.9043,9.99191 -3.9741,4.08759 -10.1055,6.35848 -6.1314,2.27089 -14.5337,2.27089 z"
                   style="font-style:normal;font-variant:normal;font-weight:bold;font-stretch:normal;font-size:113.54434204px;font-family:Ubuntu;-inkscape-font-specification:'Ubuntu Bold';letter-spacing:0px;writing-mode:lr-tb;direction:ltr;fill:#ffffff;fill-opacity:1;stroke-width:1.77413034"
                   id="path144"
                   inkscape:connector-curvature="0" />
                <path
                   d="m 1089.6833,194.73351 q 17.713,0 27.1371,6.35848 9.4242,6.24494 9.4242,19.52963 0,8.28874 -3.8605,13.51178 -3.747,5.10949 -10.9002,8.06165 2.3844,2.95215 4.9959,6.81266 2.6115,3.74696 5.1095,7.9481 2.6115,4.0876 4.996,8.62937 2.3844,4.42823 4.4282,8.74291 h -19.8703 q -2.1573,-3.8605 -4.4282,-7.83456 -2.1573,-3.97405 -4.5418,-7.72101 -2.2709,-3.74696 -4.5418,-7.03975 -2.2708,-3.40633 -4.5417,-6.13139 h -8.7429 v 28.72671 h -17.713 v -77.55078 q 5.7908,-1.13544 11.9222,-1.58962 6.2449,-0.45418 11.1273,-0.45418 z m 1.0219,15.1014 q -1.9302,0 -3.5198,0.11354 -1.4761,0.11355 -2.8386,0.22709 v 21.34634 h 4.9959 q 9.9919,0 14.3066,-2.49798 4.3147,-2.49797 4.3147,-8.51582 0,-5.79077 -4.4282,-8.1752 -4.3147,-2.49797 -12.8306,-2.49797 z"
                   style="font-style:normal;font-variant:normal;font-weight:bold;font-stretch:normal;font-size:113.54434204px;font-family:Ubuntu;-inkscape-font-specification:'Ubuntu Bold';letter-spacing:0px;writing-mode:lr-tb;direction:ltr;fill:#ffffff;fill-opacity:1;stroke-width:1.77413034"
                   id="path146"
                   inkscape:connector-curvature="0" />
                <path
                   d="m 1142.4779,274.32809 v -78.68622 h 53.1387 v 14.8743 h -35.4258 v 15.44203 h 31.4518 v 14.53368 h -31.4518 v 18.96191 h 38.0374 v 14.8743 z"
                   style="font-style:normal;font-variant:normal;font-weight:bold;font-stretch:normal;font-size:113.54434204px;font-family:Ubuntu;-inkscape-font-specification:'Ubuntu Bold';letter-spacing:0px;writing-mode:lr-tb;direction:ltr;fill:#ffffff;fill-opacity:1;stroke-width:1.77413034"
                   id="path148"
                   inkscape:connector-curvature="0" />
              </g>
            </g>
          </g>
        </g>
      </g>
    </g>
  </g>
</svg>
