<?xml version="1.0" encoding="UTF-8" standalone="no"?>
<!-- Created with Inkscape (http://www.inkscape.org/) -->

<svg
   xmlns:dc="http://purl.org/dc/elements/1.1/"
   xmlns:cc="http://creativecommons.org/ns#"
   xmlns:rdf="http://www.w3.org/1999/02/22-rdf-syntax-ns#"
   xmlns:svg="http://www.w3.org/2000/svg"
   xmlns="http://www.w3.org/2000/svg"
   xmlns:xlink="http://www.w3.org/1999/xlink"
   xmlns:sodipodi="http://sodipodi.sourceforge.net/DTD/sodipodi-0.dtd"
   xmlns:inkscape="http://www.inkscape.org/namespaces/inkscape"
   width="240.25449mm"
   height="38.655624mm"
   viewBox="0 0 240.25449 38.655624"
   version="1.1"
   id="svg8"
   inkscape:version="0.92.4 (5da689c313, 2019-01-14)"
   sodipodi:docname="logo_text.svg">
  <defs
     id="defs2">
    <path
       inkscape:connector-curvature="0"
       d="m 441.41,231.22 c 0,68.99 -56.71,125 -126.55,125 -69.84,0 -126.54,-56.01 -126.54,-125 0,-68.99 56.7,-125 126.54,-125 69.84,0 126.55,56.01 126.55,125 z"
       id="c1FIbBKHn" />
    <path
       inkscape:connector-curvature="0"
       d="m 374.27,190.38 v -2.97 0 z"
       id="a1AQj8XbSf" />
    <path
       inkscape:connector-curvature="0"
       d="m 255.38,261.7 h 34.74 v -70.8 h -34.4 v -1.4 l -17.5,-36.25 h 123.96 v 37.65 h -34.4 v 70.8 h 34.06 l 18.19,37.65 H 237.88 l 17.5,-36.25 z m 106.8,-108.45 h 18.19 l -18.19,37.65 z"
       id="a41zRWiExy" />
  </defs>
  <sodipodi:namedview
     id="base"
     pagecolor="#ffffff"
     bordercolor="#666666"
     borderopacity="1.0"
     inkscape:pageopacity="0.0"
     inkscape:pageshadow="2"
     inkscape:zoom="0.7"
     inkscape:cx="508.08222"
     inkscape:cy="207.91653"
     inkscape:document-units="mm"
     inkscape:current-layer="g48"
     showgrid="false"
     inkscape:window-width="1920"
     inkscape:window-height="1017"
     inkscape:window-x="-8"
     inkscape:window-y="-8"
     inkscape:window-maximized="1"
     fit-margin-top="0"
     fit-margin-left="0"
     fit-margin-right="0"
     fit-margin-bottom="0" />
  <metadata
     id="metadata5">
    <rdf:RDF>
      <cc:Work
         rdf:about="">
        <dc:format>image/svg+xml</dc:format>
        <dc:type
           rdf:resource="http://purl.org/dc/dcmitype/StillImage" />
        <dc:title></dc:title>
      </cc:Work>
    </rdf:RDF>
  </metadata>
  <g
     inkscape:label="Layer 1"
     inkscape:groupmode="layer"
     id="layer1"
     transform="translate(-27.917512,-26.622672)">
    <g
       transform="translate(-35.05729,-14.363094)"
       id="layer1-8"
       inkscape:label="Layer 1">
      <g
         transform="matrix(0.26458333,0,0,0.26458333,-33.131692,-4.7588024)"
         id="g49">
        <g
           id="g47"
           transform="translate(-1.812877e-7,6.0714286)">
          <g
             id="g21">
            <use
               height="100%"
               width="100%"
               y="0"
               x="0"
               style="opacity:1;fill:#95b4d7;fill-opacity:1"
               xlink:href="#a1AQj8XbSf"
               id="use19" />
          </g>
          <g
             id="g45"
             transform="translate(91.428572,5.0000001)">
            <g
               id="g48"
               style="fill:#ffffff">
              <use
                 transform="translate(33.928575,8.571429)"
                 id="use43"
                 xlink:href="#a41zRWiExy"
                 style="opacity:1;fill:#ffffff;fill-opacity:1"
                 x="0"
                 y="0"
                 width="100%"
                 height="100%" />
              <g
                 aria-label="NTELLECTURE"
                 style="font-style:normal;font-weight:normal;font-size:70.96520996px;line-height:1.25;font-family:sans-serif;letter-spacing:0px;word-spacing:0px;fill:#ffffff;fill-opacity:1;stroke:none;stroke-width:1.77413034"
                 id="text112">
                <path
                   d="m 492.97232,275.40677 h -21.80051 l -35.31229,-61.31395 h -0.45418 q 0.22709,5.79077 0.45418,11.58153 0.34063,5.79076 0.56772,11.58152 v 38.1509 h -15.32849 v -81.07066 h 21.68697 l 35.19875,60.74622 h 0.34063 q -0.22709,-5.56367 -0.45418,-11.12734 -0.22709,-5.56368 -0.34063,-11.24089 v -38.37799 h 15.44203 z"
                   style="font-style:normal;font-variant:normal;font-weight:bold;font-stretch:normal;font-size:113.54434204px;font-family:'Noto Sans';-inkscape-font-specification:'Noto Sans Bold';letter-spacing:0px;writing-mode:lr-tb;direction:ltr;fill:#ffffff;fill-opacity:1;stroke-width:1.77413034"
                   id="path46" />
                <path
                   d="M 544.57822,275.40677 H 527.43303 V 208.6427 h -22.02761 v -14.30659 h 61.2004 v 14.30659 h -22.0276 z"
                   style="font-style:normal;font-variant:normal;font-weight:bold;font-stretch:normal;font-size:113.54434204px;font-family:'Noto Sans';-inkscape-font-specification:'Noto Sans Bold';letter-spacing:0px;writing-mode:lr-tb;direction:ltr;fill:#ffffff;fill-opacity:1;stroke-width:1.77413034"
                   id="path48" />
                <path
                   d="m 625.66307,275.40677 h -46.66672 v -81.07066 h 46.66672 v 14.0795 h -29.52152 v 17.82646 h 27.47773 v 14.0795 h -27.47773 v 20.89216 h 29.52152 z"
                   style="font-style:normal;font-variant:normal;font-weight:bold;font-stretch:normal;font-size:113.54434204px;font-family:'Noto Sans';-inkscape-font-specification:'Noto Sans Bold';letter-spacing:0px;writing-mode:lr-tb;direction:ltr;fill:#ffffff;fill-opacity:1;stroke-width:1.77413034"
                   id="path50" />
                <path
                   d="m 642.64328,275.40677 v -81.07066 h 17.14519 v 66.87762 h 32.92786 v 14.19304 z"
                   style="font-style:normal;font-variant:normal;font-weight:bold;font-stretch:normal;font-size:113.54434204px;font-family:'Noto Sans';-inkscape-font-specification:'Noto Sans Bold';letter-spacing:0px;writing-mode:lr-tb;direction:ltr;fill:#ffffff;fill-opacity:1;stroke-width:1.77413034"
                   id="path52" />
                <path
                   d="m 706.73373,275.40677 v -81.07066 h 17.1452 v 66.87762 h 32.92786 v 14.19304 z"
                   style="font-style:normal;font-variant:normal;font-weight:bold;font-stretch:normal;font-size:113.54434204px;font-family:'Noto Sans';-inkscape-font-specification:'Noto Sans Bold';letter-spacing:0px;writing-mode:lr-tb;direction:ltr;fill:#ffffff;fill-opacity:1;stroke-width:1.77413034"
                   id="path54" />
                <path
                   d="m 817.49094,275.40677 h -46.66672 v -81.07066 h 46.66672 v 14.0795 h -29.52153 v 17.82646 h 27.47773 v 14.0795 h -27.47773 v 20.89216 h 29.52153 z"
                   style="font-style:normal;font-variant:normal;font-weight:bold;font-stretch:normal;font-size:113.54434204px;font-family:'Noto Sans';-inkscape-font-specification:'Noto Sans Bold';letter-spacing:0px;writing-mode:lr-tb;direction:ltr;fill:#ffffff;fill-opacity:1;stroke-width:1.77413034"
                   id="path56" />
                <path
                   d="m 868.87506,207.50725 q -9.87836,0 -15.10139,7.38038 -5.22304,7.38039 -5.22304,20.2109 0,12.94405 4.76886,20.09735 4.8824,7.03975 15.55557,7.03975 4.88241,0 9.87836,-1.13545 4.99595,-1.13544 10.78671,-3.17924 v 14.42013 q -5.33658,2.15734 -10.55962,3.17924 -5.22304,1.0219 -11.69507,1.0219 -12.60342,0 -20.66507,-5.10949 -8.06165,-5.22304 -11.92215,-14.53368 -3.86051,-9.42418 -3.86051,-21.91406 0,-12.26279 4.42823,-21.68697 4.42823,-9.42418 12.83051,-14.76076 8.51582,-5.33658 20.77861,-5.33658 6.01785,0 12.0357,1.58962 6.1314,1.47607 11.69507,4.08759 l -5.56367,13.96596 q -4.54178,-2.15735 -9.19709,-3.74697 -4.54178,-1.58962 -8.97001,-1.58962 z"
                   style="font-style:normal;font-variant:normal;font-weight:bold;font-stretch:normal;font-size:113.54434204px;font-family:'Noto Sans';-inkscape-font-specification:'Noto Sans Bold';letter-spacing:0px;writing-mode:lr-tb;direction:ltr;fill:#ffffff;fill-opacity:1;stroke-width:1.77413034"
                   id="path58" />
                <path
                   d="m 937.99163,275.40677 h -17.1452 V 208.6427 h -22.0276 v -14.30659 h 61.2004 v 14.30659 h -22.0276 z"
                   style="font-style:normal;font-variant:normal;font-weight:bold;font-stretch:normal;font-size:113.54434204px;font-family:'Noto Sans';-inkscape-font-specification:'Noto Sans Bold';letter-spacing:0px;writing-mode:lr-tb;direction:ltr;fill:#ffffff;fill-opacity:1;stroke-width:1.77413034"
                   id="path60" />
                <path
                   d="m 1038.379,194.33611 v 52.45748 q 0,8.40229 -3.7469,15.21495 -3.6334,6.69911 -11.1274,10.67316 -7.4939,3.86051 -18.7348,3.86051 -16.12327,0 -24.52555,-8.17519 -8.40229,-8.28874 -8.40229,-21.80051 v -52.2304 h 17.1452 v 49.61888 q 0,10.10544 4.0876,14.19304 4.08759,3.97405 12.14924,3.97405 8.4023,0 12.1492,-4.42823 3.8606,-4.42823 3.8606,-13.85241 v -49.50533 z"
                   style="font-style:normal;font-variant:normal;font-weight:bold;font-stretch:normal;font-size:113.54434204px;font-family:'Noto Sans';-inkscape-font-specification:'Noto Sans Bold';letter-spacing:0px;writing-mode:lr-tb;direction:ltr;fill:#ffffff;fill-opacity:1;stroke-width:1.77413034"
                   id="path62" />
                <path
                   d="m 1081.8506,194.33611 q 16.5774,0 24.412,6.01785 7.9481,6.01785 7.9481,18.28064 0,5.56367 -2.1573,9.76481 -2.0438,4.0876 -5.5637,7.03975 -3.4064,2.83861 -7.3804,4.65532 l 23.8443,35.31229 h -19.0754 l -19.3026,-31.11115 h -9.1971 v 31.11115 h -17.1452 v -81.07066 z m -1.249,14.0795 h -5.2231 v 21.91406 h 5.5637 q 8.5158,0 12.1492,-2.83861 3.747,-2.83861 3.747,-8.40228 0,-5.79077 -3.974,-8.1752 -3.9741,-2.49797 -12.2628,-2.49797 z"
                   style="font-style:normal;font-variant:normal;font-weight:bold;font-stretch:normal;font-size:113.54434204px;font-family:'Noto Sans';-inkscape-font-specification:'Noto Sans Bold';letter-spacing:0px;writing-mode:lr-tb;direction:ltr;fill:#ffffff;fill-opacity:1;stroke-width:1.77413034"
                   id="path64" />
                <path
                   d="m 1179.857,275.40677 h -46.6667 v -81.07066 h 46.6667 v 14.0795 h -29.5215 v 17.82646 h 27.4777 v 14.0795 h -27.4777 v 20.89216 h 29.5215 z"
                   style="font-style:normal;font-variant:normal;font-weight:bold;font-stretch:normal;font-size:113.54434204px;font-family:'Noto Sans';-inkscape-font-specification:'Noto Sans Bold';letter-spacing:0px;writing-mode:lr-tb;direction:ltr;fill:#ffffff;fill-opacity:1;stroke-width:1.77413034"
                   id="path66" />
              </g>
            </g>
          </g>
        </g>
      </g>
    </g>
  </g>
</svg>
