<?xml version="1.0" encoding="UTF-8" standalone="no"?>
<svg
   xmlns:dc="http://purl.org/dc/elements/1.1/"
   xmlns:cc="http://creativecommons.org/ns#"
   xmlns:rdf="http://www.w3.org/1999/02/22-rdf-syntax-ns#"
   xmlns:svg="http://www.w3.org/2000/svg"
   xmlns="http://www.w3.org/2000/svg"
   xmlns:xlink="http://www.w3.org/1999/xlink"
   id="svg8"
   version="1.1"
   viewBox="0 0 79.688408 79.688408"
   height="79.688408mm"
   width="79.688408mm">
  <defs
     id="defs2">
    <linearGradient
       id="linearGradient1178">
      <stop
         id="stop1174"
         offset="0"
         style="stop-color:#ff6a55;stop-opacity:1" />
      <stop
         id="stop1176"
         offset="1"
         style="stop-color:#ffdd55;stop-opacity:1" />
    </linearGradient>
    <linearGradient
       y2="80.060867"
       x2="40.662365"
       y1="-0.10787943"
       x1="40.662365"
       gradientUnits="userSpaceOnUse"
       id="linearGradient1182"
       xlink:href="#linearGradient1178" />
  </defs>
  <metadata
     id="metadata5">
    <rdf:RDF>
      <cc:Work
         rdf:about="">
        <dc:format>image/svg+xml</dc:format>
        <dc:type
           rdf:resource="http://purl.org/dc/dcmitype/StillImage" />
        <dc:title></dc:title>
      </cc:Work>
    </rdf:RDF>
  </metadata>
  <g
     style="display:inline"
     id="layer4">
    <circle
       r="39.844204"
       cy="39.844204"
       cx="39.844204"
       id="circle1133"
       style="display:inline;fill:url(#linearGradient1182);fill-opacity:1;stroke-width:0.142665" />
    <path
       transform="scale(0.26458333)"
       d="m 86.849609,111.95508 v 17.64648 c 0,8.53484 6.871408,15.40625 15.406251,15.40625 h 3.08203 c 8.53484,0 15.40625,-6.87141 15.40625,-15.40625 v -11.91601 c -12.24078,-0.24624 -23.427648,-2.35382 -33.894531,-5.73047 z"
       style="fill:#554400;fill-opacity:1;stroke-width:0.539203"
       id="rect849-0" />
    <path
       transform="scale(0.26458333)"
       d="m 214.33398,111.95508 c -10.4665,3.37641 -21.6523,5.48423 -33.89257,5.73047 v 11.91601 c 0,8.53484 6.8714,15.40625 15.40625,15.40625 h 3.08007 c 8.53485,0 15.40625,-6.87141 15.40625,-15.40625 z"
       style="fill:#554400;fill-opacity:1;stroke-width:0.539203"
       id="rect851-2" />
    <path
       id="path1014"
       d="m 16.810073,26.987499 c 5.531376,2.923184 11.671807,4.771566 19.314583,3.96875 l 0.02358,-3.646978"
       style="fill:none;stroke:#554400;stroke-width:3.56499993;stroke-linecap:round;stroke-linejoin:round;stroke-miterlimit:4;stroke-dasharray:none;stroke-opacity:1" />
    <path
       style="display:inline;fill:none;stroke:#554400;stroke-width:3.56499993;stroke-linecap:round;stroke-linejoin:round;stroke-miterlimit:4;stroke-dasharray:none;stroke-opacity:1"
       d="m 62.878335,26.9875 c -5.531376,2.923184 -11.671807,4.771566 -19.314583,3.96875 l -0.167384,-3.528427"
       id="path1014-4" />
    <path
       d="m 54.586695,57.627122 c 0,0.657564 -2.676108,-4.234946 -13.708571,-4.234946 -11.032463,0 -13.24085,4.705421 -13.24085,4.047857 0,-0.657564 2.208387,-6.803285 13.24085,-6.803285 11.032463,0 13.708571,6.33281 13.708571,6.990374 z"
       style="fill:#554400;fill-opacity:1;stroke:#554400;stroke-width:1.465;stroke-linecap:round;stroke-miterlimit:4;stroke-dasharray:none;stroke-opacity:1"
       id="path1128" />
  </g>
</svg>
