<?xml version="1.0" encoding="UTF-8" standalone="no"?>
<svg
   xmlns:dc="http://purl.org/dc/elements/1.1/"
   xmlns:cc="http://creativecommons.org/ns#"
   xmlns:rdf="http://www.w3.org/1999/02/22-rdf-syntax-ns#"
   xmlns:svg="http://www.w3.org/2000/svg"
   xmlns="http://www.w3.org/2000/svg"
   id="svg8"
   version="1.1"
   viewBox="0 0 79.688408 79.688408"
   height="79.688408mm"
   width="79.688408mm">
  <defs
     id="defs2" />
  <metadata
     id="metadata5">
    <rdf:RDF>
      <cc:Work
         rdf:about="">
        <dc:format>image/svg+xml</dc:format>
        <dc:type
           rdf:resource="http://purl.org/dc/dcmitype/StillImage" />
        <dc:title></dc:title>
      </cc:Work>
    </rdf:RDF>
  </metadata>
  <g
     transform="translate(-40.027683,-17.259823)"
     style="display:inline"
     id="layer1">
    <circle
       r="39.844204"
       cy="57.104027"
       cx="79.871887"
       id="path4765"
       style="fill:#ffdd55;fill-opacity:1;stroke-width:0.14266467" />
    <circle
       r="0"
       cy="262.98215"
       cx="124.35416"
       id="path4846"
       style="fill:#554400;fill-opacity:1;stroke-width:0.26458332" />
    <path
       style="fill:#ffffff;fill-opacity:1;stroke-width:0.14288934;stroke-miterlimit:4;stroke-dasharray:none"
       d="m 78.884501,69.286511 c -0.20053,-0.0059 0.07601,0.0022 0,2.85e-4 z"
       id="path5036" />
  </g>
  <g
     style="display:inline"
     id="layer3">
    <g
       id="g851"
       transform="matrix(0.53920506,0,0,0.53920506,-16.304537,-19.721091)"
       style="display:inline">
      <g
         id="g849">
        <path
           style="fill:#554400;fill-opacity:1;stroke-width:0.17387378;stroke-miterlimit:4;stroke-dasharray:none"
           d="m 75.804442,154.22574 c -1.880776,0.0367 -3.10948,-1.61734 -2.466985,-4.04867 3.404807,-13.66268 15.751707,-23.74947 30.422383,-23.75642 0.74519,0 0,0 0.74519,0 14.67068,0.007 27.01759,10.09374 30.42239,23.75642 0.8224,3.1121 -1.42073,4.95067 -4.17332,3.59995 -7.11012,-3.95446 -16.44708,-6.20727 -26.24907,-6.2156 -0.74519,0 0,0 -0.74519,0 -9.801987,0.008 -19.138948,2.26114 -26.249054,6.2156 -0.602132,0.29547 -1.179727,0.43842 -1.706344,0.44872 z"
           id="path843" />
      </g>
    </g>
    <g
       id="g2278">
      <path
         style="fill:#554400;stroke:none;stroke-width:0.26458332px;stroke-linecap:butt;stroke-linejoin:miter;stroke-opacity:1"
         d="m 19.312898,33.126717 c 0,-1.883265 4.158523,-4.598469 8.15005,-4.603707 4.155232,-0.0055 8.15005,2.744667 8.15005,4.603707 0,1.133167 -4.078857,-0.991545 -8.15005,-0.981697 -4.07885,0.0099 -8.15005,1.979303 -8.15005,0.981697 z"
         id="path2270" />
      <path
         id="path2274"
         d="m 44.075412,33.126717 c 0,-1.883265 4.158523,-4.598469 8.15005,-4.603707 4.155232,-0.0055 8.15005,2.744667 8.15005,4.603707 0,1.133167 -4.078857,-0.991545 -8.15005,-0.981697 -4.07885,0.0099 -8.15005,1.979303 -8.15005,0.981697 z"
         style="fill:#554400;stroke:none;stroke-width:0.26458332px;stroke-linecap:butt;stroke-linejoin:miter;stroke-opacity:1" />
    </g>
    <g
       transform="translate(-0.06608036)"
       id="g2293">
      <path
         style="fill:#554400;stroke:none;stroke-width:0.23677394px;stroke-linecap:butt;stroke-linejoin:miter;stroke-opacity:1"
         d="m 28.835962,15.584499 c 0.622156,0.622156 -1.160615,3.91283 -3.47488,6.329276 -2.431845,2.539216 -6.557774,3.714992 -7.238944,3.033822 -0.674484,-0.674484 3.618894,-1.734898 6.067484,-4.21053 2.377575,-2.403832 4.017767,-5.781141 4.64634,-5.152568 z"
         id="path2280" />
      <path
         id="path2289"
         d="m 50.984608,15.584499 c -0.622156,0.622156 1.160615,3.91283 3.47488,6.329276 2.431845,2.539216 6.557774,3.714992 7.238944,3.033822 0.674484,-0.674484 -3.618894,-1.734898 -6.067484,-4.21053 -2.377575,-2.403832 -4.017767,-5.781141 -4.64634,-5.152568 z"
         style="fill:#554400;stroke:none;stroke-width:0.23677394px;stroke-linecap:butt;stroke-linejoin:miter;stroke-opacity:1" />
    </g>
    <path
       id="circle2307"
       d="m 27.462925,32.144808 c -1.764529,0.0043 -3.507074,0.373243 -4.939752,0.7121 C 5.6995703,39.79928 11.216479,63.812494 12.564091,68.817505 15.63568,71.709493 19.147077,74.09531 22.967074,75.885806 18.250526,58.35467 14.894999,41.266968 31.320052,32.633666 30.128329,32.368302 28.796689,32.14158 27.462925,32.144808 Z"
       style="display:inline;fill:#5fbcd3;fill-opacity:1;stroke-width:0.14266467" />
    <path
       style="display:inline;fill:#5fbcd3;fill-opacity:1;stroke-width:0.14266467"
       d="m 52.225483,32.144808 c 1.764529,0.0043 3.507074,0.373243 4.939752,0.7121 16.823603,6.942372 11.306694,30.955586 9.959082,35.960597 -3.071589,2.891988 -6.582986,5.277805 -10.402983,7.068301 4.716548,-17.531136 8.072075,-34.618838 -8.352978,-43.25214 1.191723,-0.265364 2.523363,-0.492086 3.857127,-0.488858 z"
       id="path2377" />
  </g>
</svg>
