<?xml version="1.0" encoding="UTF-8" standalone="no"?>
<!-- Created with Inkscape (http://www.inkscape.org/) -->

<svg
   xmlns:dc="http://purl.org/dc/elements/1.1/"
   xmlns:cc="http://creativecommons.org/ns#"
   xmlns:rdf="http://www.w3.org/1999/02/22-rdf-syntax-ns#"
   xmlns:svg="http://www.w3.org/2000/svg"
   xmlns="http://www.w3.org/2000/svg"
   xmlns:xlink="http://www.w3.org/1999/xlink"
   xmlns:sodipodi="http://sodipodi.sourceforge.net/DTD/sodipodi-0.dtd"
   xmlns:inkscape="http://www.inkscape.org/namespaces/inkscape"
   width="210mm"
   height="164mm"
   viewBox="0 0 210 164"
   version="1.1"
   id="svg8"
   inkscape:version="0.92.4 (5da689c313, 2019-01-14)"
   sodipodi:docname="logo pile project.svg">
  <defs
     id="defs2">
    <path
       inkscape:connector-curvature="0"
       d="m 441.41,231.22 c 0,68.99 -56.71,125 -126.55,125 -69.84,0 -126.54,-56.01 -126.54,-125 0,-68.99 56.7,-125 126.54,-125 69.84,0 126.55,56.01 126.55,125 z"
       id="c1FIbBKHn" />
    <path
       inkscape:connector-curvature="0"
       d="m 374.27,190.38 v -2.97 0 z"
       id="a1AQj8XbSf" />
    <path
       inkscape:connector-curvature="0"
       d="m 255.38,261.7 h 34.74 v -70.8 h -34.4 v -1.4 l -17.5,-36.25 h 123.96 v 37.65 h -34.4 v 70.8 h 34.06 l 18.19,37.65 H 237.88 l 17.5,-36.25 z m 106.8,-108.45 h 18.19 l -18.19,37.65 z"
       id="a41zRWiExy" />
  </defs>
  <sodipodi:namedview
     id="base"
     pagecolor="#ffffff"
     bordercolor="#666666"
     borderopacity="1.0"
     inkscape:pageopacity="0.0"
     inkscape:pageshadow="2"
     inkscape:zoom="0.7"
     inkscape:cx="-29.539997"
     inkscape:cy="406.25437"
     inkscape:document-units="mm"
     inkscape:current-layer="g7616"
     showgrid="false"
     inkscape:window-width="1920"
     inkscape:window-height="1017"
     inkscape:window-x="-8"
     inkscape:window-y="-8"
     inkscape:window-maximized="1" />
  <metadata
     id="metadata5">
    <rdf:RDF>
      <cc:Work
         rdf:about="">
        <dc:format>image/svg+xml</dc:format>
        <dc:type
           rdf:resource="http://purl.org/dc/dcmitype/StillImage" />
        <dc:title></dc:title>
      </cc:Work>
    </rdf:RDF>
  </metadata>
  <g
     inkscape:label="Layer 1"
     inkscape:groupmode="layer"
     id="layer1"
     transform="translate(0,-133)"
     style="display:none">
    <g
       transform="translate(-144.5759,189.93303)"
       id="layer1-3"
       inkscape:label="Layer 1">
      <g
         transform="matrix(0.26458333,0,0,0.26458333,-6.2008886,1.4778047)"
         id="g49">
        <g
           id="g47"
           transform="translate(-389.91889,-292.94424)">
          <g
             id="g17"
             style="stroke:#999999;stroke-width:3;stroke-miterlimit:4;stroke-dasharray:none">
            <use
               height="100%"
               width="100%"
               y="0"
               x="0"
               style="opacity:1;fill:#aae691;fill-opacity:1;stroke:#999999;stroke-width:3;stroke-miterlimit:4;stroke-dasharray:none"
               xlink:href="#c1FIbBKHn"
               id="use15" />
          </g>
          <g
             id="g21">
            <use
               height="100%"
               width="100%"
               y="0"
               x="0"
               style="opacity:1;fill:#95b4d7;fill-opacity:1"
               xlink:href="#a1AQj8XbSf"
               id="use19" />
          </g>
          <g
             id="g45">
            <g
               id="g41">
              <filter
                 id="shadow3511308"
                 x="219.88"
                 y="135.25"
                 width="188.49001"
                 height="192.11"
                 filterUnits="userSpaceOnUse"
                 primitiveUnits="userSpaceOnUse">
                <feFlood
                   id="feFlood23" />
                <feComposite
                   in2="SourceAlpha"
                   operator="in"
                   id="feComposite25" />
                <feGaussianBlur
                   stdDeviation="1"
                   id="feGaussianBlur27" />
                <feOffset
                   dx="10"
                   dy="10"
                   result="afterOffset"
                   id="feOffset29" />
                <feFlood
                   flood-color="#000000"
                   flood-opacity="0.5"
                   id="feFlood31" />
                <feComposite
                   in2="afterOffset"
                   operator="in"
                   id="feComposite33" />
                <feMorphology
                   operator="dilate"
                   radius="1"
                   id="feMorphology35" />
                <feComposite
                   in2="SourceAlpha"
                   operator="out"
                   id="feComposite37" />
              </filter>
              <path
                 style="fill:#ffffff;fill-opacity:1;filter:url(#shadow3511308)"
                 inkscape:connector-curvature="0"
                 d="m 255.38,261.7 h 34.74 v -70.8 h -34.4 v -1.4 l -17.5,-36.25 h 123.96 v 37.65 h -34.4 v 70.8 h 34.06 l 18.19,37.65 H 237.88 l 17.5,-36.25 z m 106.8,-108.45 h 18.19 l -18.19,37.65 z"
                 id="aHS706JaV" />
            </g>
            <use
               height="100%"
               width="100%"
               y="0"
               x="0"
               style="opacity:1;fill:#f3f3f3;fill-opacity:1"
               xlink:href="#a41zRWiExy"
               id="use43" />
          </g>
        </g>
      </g>
    </g>
  </g>
  <g
     inkscape:groupmode="layer"
     id="layer2"
     inkscape:label="left"
     style="display:none"
     transform="translate(0,-133)">
    <g
       transform="matrix(0.26458333,0,0,0.26458333,-150.77679,191.41083)"
       id="g7572">
      <use
         height="100%"
         width="100%"
         y="0"
         x="0"
         transform="matrix(0.36954736,0.53337006,-0.53337006,0.36954736,761.21265,59.094652)"
         xlink:href="#g47"
         inkscape:spray-origin="#g47"
         id="use7556" />
      <use
         height="100%"
         width="100%"
         y="0"
         x="0"
         transform="matrix(0.54650164,0.30559775,-0.30559775,0.54650164,903.54153,113.27158)"
         xlink:href="#g47"
         inkscape:spray-origin="#g47"
         id="use7548" />
      <use
         height="100%"
         width="100%"
         y="0"
         x="0"
         transform="matrix(0.69874348,0.46906791,-0.46906791,0.69874348,852.71309,213.23913)"
         xlink:href="#g47"
         inkscape:spray-origin="#g47"
         id="use7542" />
      <use
         height="100%"
         width="100%"
         y="0"
         x="0"
         transform="matrix(0.64670086,-0.12076064,0.12076064,0.64670086,1047.5066,179.06958)"
         xlink:href="#g47"
         inkscape:spray-origin="#g47"
         id="use7544" />
      <use
         height="100%"
         width="100%"
         y="0"
         x="0"
         transform="matrix(0.83891971,-0.32253191,0.32253191,0.83891971,705.64987,-38.5058)"
         xlink:href="#g47"
         inkscape:spray-origin="#g47"
         id="use7546" />
      <use
         height="100%"
         width="100%"
         y="0"
         x="0"
         transform="matrix(1.0442776,0.17909675,-0.17909675,1.0442776,702.60934,171.37621)"
         xlink:href="#g47"
         inkscape:spray-origin="#g47"
         id="use7550" />
      <use
         height="100%"
         width="100%"
         y="0"
         x="0"
         transform="matrix(0.42464125,0.51358092,-0.51358092,0.42464125,1149.8415,445.33957)"
         xlink:href="#g47"
         inkscape:spray-origin="#g47"
         id="use7560" />
      <use
         height="100%"
         width="100%"
         y="0"
         x="0"
         transform="matrix(1.1716918,0.20807521,-0.20807521,1.1716918,1072.8776,400.31146)"
         xlink:href="#g47"
         inkscape:spray-origin="#g47"
         id="use7552" />
      <use
         height="100%"
         width="100%"
         y="0"
         x="0"
         transform="matrix(0.64808344,0.83723136,-0.83723136,0.64808344,810.68153,431.87715)"
         xlink:href="#g47"
         inkscape:spray-origin="#g47"
         id="use7554" />
      <use
         height="100%"
         width="100%"
         y="0"
         x="0"
         transform="matrix(1.155274,0.59112327,-0.59112327,1.155274,700.59599,400.47446)"
         xlink:href="#g47"
         inkscape:spray-origin="#g47"
         id="use7558" />
    </g>
  </g>
  <g
     inkscape:groupmode="layer"
     id="layer5"
     inkscape:label="right"
     style="display:inline"
     transform="translate(0,-133)">
    <g
       transform="matrix(0.26458333,0,0,0.26458333,-150.77679,191.41083)"
       id="g7616">
      <use
         height="100%"
         width="100%"
         y="0"
         x="0"
         transform="matrix(0.74161394,0.94509177,-0.94509177,0.74161394,1291.4576,133.41562)"
         xlink:href="#g47"
         inkscape:spray-origin="#g47"
         id="use7598" />
      <use
         height="100%"
         width="100%"
         y="0"
         x="0"
         transform="matrix(0.86011852,-0.0995549,0.0995549,0.86011852,1272.836,-55.336594)"
         xlink:href="#g47"
         inkscape:spray-origin="#g47"
         id="use7594" />
      <use
         height="100%"
         width="100%"
         y="0"
         x="0"
         transform="matrix(1.1737828,-0.11746631,0.11746631,1.1737828,1203.4145,116.51158)"
         xlink:href="#g47"
         inkscape:spray-origin="#g47"
         id="use7600" />
      <use
         height="100%"
         width="100%"
         y="0"
         x="0"
         transform="matrix(0.75734054,0.42114347,-0.42114347,0.75734054,1002.4002,95.120843)"
         xlink:href="#g47"
         inkscape:spray-origin="#g47"
         id="use7596" />
      <use
         height="100%"
         width="100%"
         y="0"
         x="0"
         transform="matrix(0.93366186,1.0062837,-1.0062837,0.93366186,1287.0782,407.00395)"
         xlink:href="#g47"
         inkscape:spray-origin="#g47"
         id="use7586" />
      <use
         height="100%"
         width="100%"
         y="0"
         x="0"
         transform="matrix(0.57319242,0.39342366,-0.39342366,0.57319242,800.19074,289.14156)"
         xlink:href="#g47"
         inkscape:spray-origin="#g47"
         id="use7592" />
      <use
         height="100%"
         width="100%"
         y="0"
         x="0"
         transform="matrix(0.75799665,-0.04747975,0.04747975,0.75799665,990.92966,207.9452)"
         xlink:href="#g47"
         inkscape:spray-origin="#g47"
         id="use7604" />
      <use
         height="100%"
         width="100%"
         y="0"
         x="0"
         transform="matrix(0.93062093,-1.0324256,1.0324256,0.93062093,1197.0674,260.07769)"
         xlink:href="#g47"
         inkscape:spray-origin="#g47"
         id="use7588" />
      <use
         height="100%"
         width="100%"
         y="0"
         x="0"
         transform="matrix(0.52006011,0.36398302,-0.36398302,0.52006011,736.38787,419.31826)"
         xlink:href="#g47"
         inkscape:spray-origin="#g47"
         id="use7590" />
      <use
         height="100%"
         width="100%"
         y="0"
         x="0"
         transform="matrix(0.99048144,-0.08309951,0.08309951,0.99048144,935.6923,386.98069)"
         xlink:href="#g47"
         inkscape:spray-origin="#g47"
         id="use7602" />
    </g>
  </g>
</svg>
